<svg width="114" height="114" viewBox="0 0 114 114" fill="none" xmlns="http://www.w3.org/2000/svg">
<g filter="url(#filter0_d_3_22)">
<mask id="path-1-outside-1_3_22" maskUnits="userSpaceOnUse" x="6" y="2" width="102" height="102" fill="black">
<rect fill="white" x="6" y="2" width="102" height="102"/>
<path fill-rule="evenodd" clip-rule="evenodd" d="M24.8122 66.2941L52.6518 98.8911C55.0532 101.703 58.9468 101.703 61.3482 98.8911L89.1877 66.2941C89.1897 66.2918 89.1917 66.2895 89.1936 66.2872L97.4331 56.6396C107.522 44.8263 107.522 25.6732 97.4331 13.8599C87.344 2.04667 70.9863 2.0467 60.8971 13.86L57 18.4231L53.1028 13.86C43.0137 2.04668 26.656 2.04668 16.5668 13.86C6.4777 25.6732 6.47773 44.8264 16.5669 56.6396L24.8079 66.289C24.8093 66.2907 24.8108 66.2924 24.8122 66.2941Z"/>
</mask>
<path fill-rule="evenodd" clip-rule="evenodd" d="M24.8122 66.2941L52.6518 98.8911C55.0532 101.703 58.9468 101.703 61.3482 98.8911L89.1877 66.2941C89.1897 66.2918 89.1917 66.2895 89.1936 66.2872L97.4331 56.6396C107.522 44.8263 107.522 25.6732 97.4331 13.8599C87.344 2.04667 70.9863 2.0467 60.8971 13.86L57 18.4231L53.1028 13.86C43.0137 2.04668 26.656 2.04668 16.5668 13.86C6.4777 25.6732 6.47773 44.8264 16.5669 56.6396L24.8079 66.289C24.8093 66.2907 24.8108 66.2924 24.8122 66.2941Z" fill="#FF0000" fill-opacity="0.79" shape-rendering="crispEdges"/>
<path d="M52.6518 98.8911L50.3705 100.839L52.6518 98.8911ZM24.8122 66.2941L27.0935 64.3458L27.0927 64.3449L24.8122 66.2941ZM61.3482 98.8911L59.067 96.9428L61.3482 98.8911ZM89.1877 66.2941L86.9068 64.3454L86.9065 64.3458L89.1877 66.2941ZM89.1936 66.2872L86.9124 64.3388L86.9111 64.3404L89.1936 66.2872ZM97.4331 56.6396L95.1519 54.6913V54.6913L97.4331 56.6396ZM97.4331 13.8599L95.1519 15.8083L97.4331 13.8599ZM60.8971 13.86L63.1784 15.8083H63.1784L60.8971 13.86ZM57 18.4231L54.7187 20.3714L57 23.0425L59.2812 20.3714L57 18.4231ZM53.1028 13.86L55.3841 11.9117L55.3841 11.9117L53.1028 13.86ZM16.5668 13.86L14.2856 11.9117V11.9117L16.5668 13.86ZM16.5669 56.6396L14.2856 58.5879L16.5669 56.6396ZM24.8079 66.289L27.0918 64.3438L27.0891 64.3407L24.8079 66.289ZM54.933 96.9428L27.0935 64.3458L22.531 68.2424L50.3705 100.839L54.933 96.9428ZM59.067 96.9428C57.8631 98.3524 56.1369 98.3524 54.933 96.9428L50.3705 100.839C53.9696 105.054 60.0304 105.054 63.6295 100.839L59.067 96.9428ZM86.9065 64.3458L59.067 96.9428L63.6295 100.839L91.469 68.2424L86.9065 64.3458ZM86.9111 64.3404C86.909 64.3428 86.9078 64.3442 86.9068 64.3454L91.4687 68.2427C91.4716 68.2393 91.4744 68.2361 91.4762 68.2339L86.9111 64.3404ZM95.1519 54.6913L86.9124 64.3388L91.4749 68.2355L99.7144 58.5879L95.1519 54.6913ZM95.1519 15.8083C104.283 26.4994 104.283 44.0001 95.1519 54.6913L99.7144 58.5879C110.762 45.6525 110.762 24.847 99.7144 11.9116L95.1519 15.8083ZM63.1784 15.8083C72.0699 5.39726 86.2604 5.39724 95.1519 15.8083L99.7144 11.9116C88.4277 -1.3039 69.9026 -1.30386 58.6159 11.9117L63.1784 15.8083ZM59.2812 20.3714L63.1784 15.8083L58.6159 11.9117L54.7187 16.4748L59.2812 20.3714ZM50.8216 15.8083L54.7187 20.3714L59.2812 16.4748L55.3841 11.9117L50.8216 15.8083ZM18.8481 15.8083C27.7396 5.39724 41.93 5.39725 50.8216 15.8083L55.3841 11.9117C44.0973 -1.30388 25.5723 -1.30389 14.2856 11.9117L18.8481 15.8083ZM18.8481 54.6913C9.71731 44.0002 9.71729 26.4994 18.8481 15.8083L14.2856 11.9117C3.23812 24.847 3.23815 45.6526 14.2856 58.5879L18.8481 54.6913ZM27.0891 64.3407L18.8481 54.6913L14.2856 58.5879L22.5266 68.2373L27.0891 64.3407ZM27.0927 64.3449C27.0927 64.3448 27.0924 64.3445 27.0918 64.3438L22.524 68.2342C22.5262 68.2368 22.5289 68.2399 22.5317 68.2433L27.0927 64.3449Z" fill="black" mask="url(#path-1-outside-1_3_22)"/>
</g>
<defs>
<filter id="filter0_d_3_22" x="0" y="0" width="114" height="114" filterUnits="userSpaceOnUse" color-interpolation-filters="sRGB">
<feFlood flood-opacity="0" result="BackgroundImageFix"/>
<feColorMatrix in="SourceAlpha" type="matrix" values="0 0 0 0 0 0 0 0 0 0 0 0 0 0 0 0 0 0 127 0" result="hardAlpha"/>
<feOffset dy="4"/>
<feGaussianBlur stdDeviation="3"/>
<feComposite in2="hardAlpha" operator="out"/>
<feColorMatrix type="matrix" values="0 0 0 0 0 0 0 0 0 0 0 0 0 0 0 0 0 0 0.5 0"/>
<feBlend mode="normal" in2="BackgroundImageFix" result="effect1_dropShadow_3_22"/>
<feBlend mode="normal" in="SourceGraphic" in2="effect1_dropShadow_3_22" result="shape"/>
</filter>
</defs>
</svg>
